<mxfile host="Electron" modified="2023-11-27T19:31:22.671Z" agent="Mozilla/5.0 (Windows NT 10.0; Win64; x64) AppleWebKit/537.36 (KHTML, like Gecko) draw.io/22.0.2 Chrome/114.0.5735.289 Electron/25.8.4 Safari/537.36" etag="p-FCdXzZwKB74ZMmQHIt" version="22.0.2" type="device">
  <diagram name="第 1 页" id="Q0WjX7eziE4h9aWlEA5a">
    <mxGraphModel dx="1434" dy="844" grid="1" gridSize="10" guides="1" tooltips="1" connect="1" arrows="1" fold="1" page="1" pageScale="1" pageWidth="2500" pageHeight="2500" math="0" shadow="0">
      <root>
        <mxCell id="0" />
        <mxCell id="1" parent="0" />
        <mxCell id="DSqWBjJgte3P1szaywDi-1" value="" style="ellipse;html=1;shape=startState;fillColor=#000000;strokeColor=#ff0000;" vertex="1" parent="1">
          <mxGeometry x="10" y="260" width="30" height="30" as="geometry" />
        </mxCell>
        <mxCell id="DSqWBjJgte3P1szaywDi-2" value="" style="edgeStyle=orthogonalEdgeStyle;html=1;verticalAlign=bottom;endArrow=open;endSize=8;strokeColor=#ff0000;rounded=0;entryX=0;entryY=0.5;entryDx=0;entryDy=0;" edge="1" source="DSqWBjJgte3P1szaywDi-1" parent="1" target="DSqWBjJgte3P1szaywDi-3">
          <mxGeometry relative="1" as="geometry">
            <mxPoint x="145" y="250" as="targetPoint" />
          </mxGeometry>
        </mxCell>
        <mxCell id="DSqWBjJgte3P1szaywDi-6" style="edgeStyle=orthogonalEdgeStyle;rounded=0;orthogonalLoop=1;jettySize=auto;html=1;exitX=1;exitY=0.5;exitDx=0;exitDy=0;entryX=0;entryY=0.5;entryDx=0;entryDy=0;" edge="1" parent="1" source="DSqWBjJgte3P1szaywDi-3" target="DSqWBjJgte3P1szaywDi-5">
          <mxGeometry relative="1" as="geometry" />
        </mxCell>
        <mxCell id="DSqWBjJgte3P1szaywDi-3" value="shut down" style="html=1;whiteSpace=wrap;" vertex="1" parent="1">
          <mxGeometry x="90" y="250" width="110" height="50" as="geometry" />
        </mxCell>
        <mxCell id="DSqWBjJgte3P1szaywDi-9" style="edgeStyle=orthogonalEdgeStyle;rounded=0;orthogonalLoop=1;jettySize=auto;html=1;exitX=1;exitY=0.5;exitDx=0;exitDy=0;entryX=0;entryY=0.5;entryDx=0;entryDy=0;" edge="1" parent="1" source="DSqWBjJgte3P1szaywDi-5" target="DSqWBjJgte3P1szaywDi-8">
          <mxGeometry relative="1" as="geometry" />
        </mxCell>
        <mxCell id="DSqWBjJgte3P1szaywDi-12" style="edgeStyle=orthogonalEdgeStyle;rounded=0;orthogonalLoop=1;jettySize=auto;html=1;entryX=0;entryY=0.5;entryDx=0;entryDy=0;" edge="1" parent="1" source="DSqWBjJgte3P1szaywDi-5" target="DSqWBjJgte3P1szaywDi-11">
          <mxGeometry relative="1" as="geometry">
            <Array as="points">
              <mxPoint x="360" y="475" />
            </Array>
          </mxGeometry>
        </mxCell>
        <mxCell id="DSqWBjJgte3P1szaywDi-5" value="working: attaching pads" style="html=1;whiteSpace=wrap;" vertex="1" parent="1">
          <mxGeometry x="300" y="250" width="110" height="50" as="geometry" />
        </mxCell>
        <mxCell id="DSqWBjJgte3P1szaywDi-7" value="press &quot;ON&quot;" style="text;html=1;align=center;verticalAlign=middle;resizable=0;points=[];autosize=1;strokeColor=none;fillColor=none;" vertex="1" parent="1">
          <mxGeometry x="210" y="250" width="80" height="30" as="geometry" />
        </mxCell>
        <mxCell id="DSqWBjJgte3P1szaywDi-17" style="edgeStyle=orthogonalEdgeStyle;rounded=0;orthogonalLoop=1;jettySize=auto;html=1;entryX=0;entryY=0.5;entryDx=0;entryDy=0;" edge="1" parent="1" source="DSqWBjJgte3P1szaywDi-8" target="DSqWBjJgte3P1szaywDi-16">
          <mxGeometry relative="1" as="geometry" />
        </mxCell>
        <mxCell id="DSqWBjJgte3P1szaywDi-8" value="audio prompt:&lt;br&gt;shock" style="html=1;whiteSpace=wrap;" vertex="1" parent="1">
          <mxGeometry x="580" y="250" width="110" height="50" as="geometry" />
        </mxCell>
        <mxCell id="DSqWBjJgte3P1szaywDi-10" value="shockable rhythm detected" style="text;html=1;align=center;verticalAlign=middle;resizable=0;points=[];autosize=1;strokeColor=none;fillColor=none;" vertex="1" parent="1">
          <mxGeometry x="410" y="240" width="170" height="30" as="geometry" />
        </mxCell>
        <mxCell id="DSqWBjJgte3P1szaywDi-20" style="edgeStyle=orthogonalEdgeStyle;rounded=0;orthogonalLoop=1;jettySize=auto;html=1;entryX=0;entryY=0.5;entryDx=0;entryDy=0;" edge="1" parent="1" source="DSqWBjJgte3P1szaywDi-11" target="DSqWBjJgte3P1szaywDi-18">
          <mxGeometry relative="1" as="geometry" />
        </mxCell>
        <mxCell id="DSqWBjJgte3P1szaywDi-11" value="audio prompt: contunue CPR" style="html=1;whiteSpace=wrap;" vertex="1" parent="1">
          <mxGeometry x="580" y="450" width="110" height="50" as="geometry" />
        </mxCell>
        <mxCell id="DSqWBjJgte3P1szaywDi-13" value="non-shockable rhythm detected" style="text;html=1;align=center;verticalAlign=middle;resizable=0;points=[];autosize=1;strokeColor=none;fillColor=none;" vertex="1" parent="1">
          <mxGeometry x="370" y="440" width="190" height="30" as="geometry" />
        </mxCell>
        <mxCell id="DSqWBjJgte3P1szaywDi-14" style="edgeStyle=orthogonalEdgeStyle;rounded=0;orthogonalLoop=1;jettySize=auto;html=1;exitX=0.864;exitY=0.06;exitDx=0;exitDy=0;entryX=0.455;entryY=0;entryDx=0;entryDy=0;entryPerimeter=0;exitPerimeter=0;" edge="1" parent="1" source="DSqWBjJgte3P1szaywDi-5" target="DSqWBjJgte3P1szaywDi-5">
          <mxGeometry relative="1" as="geometry">
            <mxPoint x="345" y="140" as="sourcePoint" />
            <mxPoint x="290" y="140" as="targetPoint" />
            <Array as="points">
              <mxPoint x="395" y="250" />
              <mxPoint x="400" y="250" />
              <mxPoint x="400" y="190" />
              <mxPoint x="350" y="190" />
            </Array>
          </mxGeometry>
        </mxCell>
        <mxCell id="DSqWBjJgte3P1szaywDi-15" value="no rhythm detected" style="text;html=1;align=center;verticalAlign=middle;resizable=0;points=[];autosize=1;strokeColor=none;fillColor=none;" vertex="1" parent="1">
          <mxGeometry x="310" y="160" width="130" height="30" as="geometry" />
        </mxCell>
        <mxCell id="DSqWBjJgte3P1szaywDi-19" style="edgeStyle=orthogonalEdgeStyle;rounded=0;orthogonalLoop=1;jettySize=auto;html=1;entryX=0.5;entryY=0;entryDx=0;entryDy=0;" edge="1" parent="1" source="DSqWBjJgte3P1szaywDi-16" target="DSqWBjJgte3P1szaywDi-18">
          <mxGeometry relative="1" as="geometry" />
        </mxCell>
        <mxCell id="DSqWBjJgte3P1szaywDi-16" value="after shock anaylsis" style="html=1;whiteSpace=wrap;" vertex="1" parent="1">
          <mxGeometry x="810" y="250" width="110" height="50" as="geometry" />
        </mxCell>
        <mxCell id="DSqWBjJgte3P1szaywDi-18" value="" style="ellipse;html=1;shape=endState;fillColor=#000000;strokeColor=#ff0000;" vertex="1" parent="1">
          <mxGeometry x="850" y="460" width="30" height="30" as="geometry" />
        </mxCell>
      </root>
    </mxGraphModel>
  </diagram>
</mxfile>
